<?xml version="1.0" standalone="no"?>
<!DOCTYPE svg PUBLIC "-//W3C//DTD SVG 20010904//EN"
 "http://www.w3.org/TR/2001/REC-SVG-20010904/DTD/svg10.dtd">
<svg version="1.0" xmlns="http://www.w3.org/2000/svg"
 width="1262.000000pt" height="137.000000pt" viewBox="0 0 1262.000000 137.000000"
 preserveAspectRatio="xMidYMid meet">

<g transform="translate(0.000000,137.000000) scale(0.100000,-0.100000)"
fill="#000000" stroke="none">
<path d="M110 1364 c-41 -15 -62 -31 -80 -60 -19 -30 -20 -51 -20 -486 l0
-455 23 -34 c37 -54 54 -59 242 -59 188 0 205 5 242 59 20 30 23 46 23 142 l0
109 65 0 65 0 0 -100 c0 -118 14 -161 62 -190 28 -17 50 -20 156 -20 l122 0 0
-32 c0 -85 46 -159 124 -201 41 -22 46 -22 524 -22 l484 0 34 37 c33 37 34 39
34 127 l0 90 253 3 c212 3 257 6 282 20 29 15 34 15 85 -3 48 -16 86 -18 292
-19 212 0 243 2 289 20 49 18 53 18 83 2 27 -15 65 -17 301 -17 263 0 271 1
313 23 l43 23 47 -23 c46 -22 55 -23 312 -23 265 0 266 0 315 26 30 15 62 42
80 68 l30 43 3 404 c2 349 1 408 -13 434 -26 51 -58 60 -208 60 -113 0 -137 3
-148 17 -29 35 -74 43 -232 43 -127 0 -159 -3 -188 -18 -32 -16 -38 -17 -70
-3 -28 13 -80 16 -279 16 -214 0 -251 -2 -292 -18 -47 -18 -49 -18 -95 0 -42
16 -79 18 -278 18 -126 0 -252 -2 -280 -3 -27 -1 -126 0 -218 4 -157 5 -171 4
-212 -16 -67 -32 -75 -59 -75 -244 l0 -156 -70 0 -70 0 0 118 c0 135 -14 177
-73 229 -62 54 -112 63 -361 63 -190 -1 -229 -3 -276 -20 -54 -18 -56 -18
-114 1 -55 19 -86 20 -370 20 -171 0 -441 2 -601 4 -160 2 -297 2 -305 -1z
m591 -147 c18 -12 36 -33 40 -47 4 -14 7 -101 8 -193 2 -256 -8 -267 -219
-267 l-120 0 0 -155 0 -155 -140 0 -140 0 0 420 0 420 269 0 c262 0 269 -1
302 -23z m602 14 c32 -5 58 -17 75 -35 26 -26 27 -30 30 -167 4 -143 -5 -192
-34 -203 -10 -4 -8 -11 11 -30 l25 -25 0 -211 0 -210 335 0 335 0 0 -105 0
-106 -446 3 -446 3 -29 33 -29 32 0 260 0 260 -30 0 -30 0 0 -165 0 -165 -140
0 -140 0 0 413 c0 228 3 417 7 420 9 10 447 8 506 -2z m723 -13 c52 -28 54
-40 54 -404 0 -370 -2 -382 -61 -403 -20 -7 -116 -11 -251 -11 -232 0 -264 6
-288 49 -6 13 -10 149 -10 370 0 348 0 350 23 376 31 37 88 44 312 41 152 -2
196 -5 221 -18z m724 -358 c0 -262 -4 -387 -11 -404 -23 -50 -57 -56 -301 -56
-313 0 -308 -4 -308 268 l0 152 140 0 140 0 0 -105 0 -105 30 0 30 0 0 315 0
315 140 0 140 0 0 -380z m620 365 c16 -8 34 -24 40 -34 6 -12 10 -111 10 -250
l0 -231 -165 0 -165 0 0 -50 c0 -49 1 -50 30 -50 25 0 30 4 30 25 l0 25 135 0
135 0 0 -96 c0 -163 -3 -164 -298 -164 -135 0 -231 4 -251 11 -59 21 -61 32
-61 408 0 370 2 384 55 407 46 20 466 19 505 -1z m697 -18 l28 -27 0 -148 0
-147 -137 -3 -138 -3 0 76 0 75 -30 0 -30 0 0 -210 0 -210 30 0 30 0 0 100 0
100 141 0 141 0 -4 -175 -3 -175 -28 -27 -27 -28 -250 0 -250 0 -27 28 -28 27
0 359 c0 345 1 360 20 381 11 12 29 26 40 31 11 4 127 7 257 6 l238 -2 27 -28z
m403 8 l0 -25 170 0 170 0 0 -105 0 -105 -170 0 -170 0 0 -185 0 -185 35 0 35
0 0 160 0 160 135 0 135 0 0 -231 c0 -139 -4 -238 -10 -250 -24 -44 -56 -49
-295 -49 -239 0 -271 5 -295 49 -6 12 -10 119 -10 275 l0 256 -35 0 -35 0 0
105 0 105 35 0 c31 0 35 3 35 25 l0 25 135 0 135 0 0 -25z"/>
<path d="M410 970 l0 -60 30 0 30 0 0 60 0 60 -30 0 -30 0 0 -60z"/>
<path d="M1070 960 l0 -60 30 0 30 0 0 60 0 60 -30 0 -30 0 0 -60z"/>
<path d="M1740 815 l0 -205 30 0 30 0 0 205 0 205 -30 0 -30 0 0 -205z"/>
<path d="M3090 970 l0 -60 30 0 30 0 0 60 0 60 -30 0 -30 0 0 -60z"/>
<path d="M5233 1360 c-53 -11 -91 -31 -127 -66 -62 -62 -61 -56 -64 -444 -2
-234 0 -372 8 -406 13 -60 56 -116 113 -147 40 -21 52 -22 312 -22 236 0 274
2 301 17 30 16 34 16 83 -2 49 -19 80 -20 679 -20 604 0 628 1 659 20 63 38
63 37 62 474 0 456 -2 468 -72 533 -71 66 -85 68 -412 66 -159 0 -317 -1 -350
0 -382 5 -521 1 -568 -16 -46 -18 -49 -18 -90 -1 -36 16 -75 19 -267 20 -124
2 -244 -1 -267 -6z m514 -153 c28 -27 28 -29 31 -177 l3 -150 -140 0 -141 0 0
75 0 75 -30 0 -30 0 0 -210 0 -210 30 0 30 0 0 100 0 100 141 0 140 0 -3 -175
-3 -175 -28 -27 -27 -28 -250 0 -250 0 -27 28 -28 27 0 359 c0 345 1 360 20
381 11 12 29 26 40 31 11 4 127 7 257 6 l238 -2 27 -28z m642 22 c60 -21 61
-28 61 -449 l0 -380 -265 0 c-282 0 -310 4 -335 49 -6 12 -10 101 -10 219 0
197 0 199 24 221 33 31 82 40 204 41 l102 0 0 50 c0 49 -1 50 -30 50 -25 0
-30 -4 -30 -25 l0 -25 -135 0 -135 0 0 96 c0 162 1 163 296 164 137 0 233 -4
253 -11z m681 -2 c47 -24 60 -68 60 -215 0 -131 -7 -168 -36 -185 -10 -5 -7
-13 12 -32 24 -24 24 -26 24 -210 l0 -185 -140 0 -140 0 0 165 0 165 -30 0
-30 0 0 -165 0 -165 -140 0 -140 0 0 420 0 420 268 0 c193 0 274 -4 292 -13z"/>
<path d="M6110 675 l0 -65 30 0 30 0 0 65 0 65 -30 0 -30 0 0 -65z"/>
<path d="M6790 965 l0 -65 30 0 30 0 0 65 0 65 -30 0 -30 0 0 -65z"/>
<path d="M7530 1354 c-67 -18 -117 -57 -147 -114 -23 -42 -23 -46 -22 -423 0
-362 1 -382 20 -420 12 -22 35 -53 52 -69 55 -50 105 -58 364 -58 207 0 239 2
284 20 49 18 53 18 83 2 27 -15 65 -17 291 -17 143 0 274 1 290 2 17 1 90 0
163 -3 l132 -5 0 -31 c0 -81 50 -161 123 -201 42 -22 42 -22 690 -25 l649 -3
39 40 39 39 0 90 0 90 93 6 c50 4 101 6 112 5 11 0 230 -3 486 -5 l467 -4 4
-83 c6 -96 20 -130 63 -157 30 -19 51 -20 317 -20 324 0 360 6 423 67 67 65
65 43 65 657 l0 554 -26 31 c-41 49 -71 53 -379 49 -258 -3 -283 -5 -321 -23
-40 -21 -41 -21 -85 -1 -42 19 -76 21 -239 19 -30 0 -206 0 -390 0 -184 -1
-355 -1 -380 -2 -25 0 -174 2 -331 5 -242 4 -292 3 -322 -10 -27 -11 -45 -12
-69 -5 -18 5 -134 9 -258 9 -194 -1 -232 -3 -280 -20 -54 -18 -56 -18 -112 1
-51 17 -86 19 -335 18 -153 0 -287 -4 -298 -8 -11 -5 -33 -3 -50 3 -19 7 -119
11 -270 11 -209 0 -246 -2 -288 -18 -46 -18 -49 -18 -90 -1 -59 25 -473 32
-557 8z m510 -129 c43 -22 50 -43 50 -149 l0 -96 -135 0 -135 0 0 25 c0 21 -5
25 -30 25 -29 0 -30 -1 -30 -50 l0 -50 93 -1 c134 0 186 -11 214 -43 22 -26
23 -33 23 -222 0 -115 -4 -203 -10 -215 -24 -44 -56 -49 -295 -49 -303 0 -305
1 -305 164 l0 96 140 0 140 0 0 -25 c0 -21 5 -25 30 -25 29 0 30 1 30 50 l0
50 -124 0 c-140 0 -180 10 -201 51 -20 37 -22 384 -3 425 22 48 53 53 296 54
180 0 229 -3 252 -15z m677 -5 c44 -27 55 -71 51 -215 l-3 -120 -137 -3 -138
-3 0 76 0 75 -30 0 -30 0 0 -210 0 -210 30 0 30 0 0 100 0 100 141 0 141 0 -4
-175 -3 -175 -28 -27 -27 -28 -251 0 -251 0 -29 33 -30 33 3 354 c3 337 4 354
23 375 11 12 29 26 40 31 11 4 121 8 245 8 206 1 228 -1 257 -19z m669 -2 c47
-26 54 -53 54 -214 0 -141 -1 -146 -24 -167 l-24 -21 24 -19 c24 -18 24 -19
24 -233 l0 -214 340 0 340 0 0 -105 0 -106 -450 3 -450 3 -27 28 -28 27 -3
265 -3 265 -29 0 -30 0 0 -165 0 -165 -140 0 -140 0 0 413 c0 228 3 417 8 421
4 4 124 6 267 4 218 -3 265 -6 291 -20z m627 13 c32 -5 58 -17 75 -35 l27 -26
3 -385 3 -385 -264 0 c-287 0 -319 5 -342 51 -18 34 -22 388 -5 420 21 39 62
49 200 49 l130 0 0 50 c0 49 -1 50 -29 50 -23 0 -30 -5 -33 -22 -3 -22 -6 -23
-140 -26 l-138 -3 0 96 c0 53 5 105 10 115 14 25 45 42 95 51 56 9 350 9 408
0z m748 -29 l29 -32 0 -345 c0 -245 -3 -352 -12 -370 -21 -46 -54 -55 -198
-55 l-130 0 0 -130 0 -130 -135 0 -135 0 0 550 0 551 276 -3 276 -3 29 -33z
m369 -382 l0 -420 -140 0 -140 0 0 420 0 420 140 0 140 0 0 -420z m340 396 l0
-23 43 21 c34 17 60 21 139 21 93 0 99 -1 125 -28 l28 -27 3 -390 3 -390 -141
0 -140 0 0 315 0 315 -30 0 -30 0 0 -315 0 -315 -140 0 -140 0 0 420 0 420
140 0 140 0 0 -24z m1010 -492 c0 -334 -4 -522 -10 -535 -25 -45 -53 -49 -335
-49 l-265 0 0 105 0 105 170 0 170 0 0 25 0 25 -130 0 c-138 0 -179 10 -200
49 -14 27 -14 715 0 741 24 45 49 49 333 50 l267 0 0 -516z"/>
<path d="M9100 960 l0 -60 30 0 30 0 0 60 0 60 -30 0 -30 0 0 -60z"/>
<path d="M9780 675 l0 -65 30 0 30 0 0 65 0 65 -30 0 -30 0 0 -65z"/>
<path d="M10450 820 l0 -210 30 0 30 0 0 210 0 210 -30 0 -30 0 0 -210z"/>
<path d="M12140 820 l0 -210 35 0 35 0 0 210 0 210 -35 0 -35 0 0 -210z"/>
</g>
</svg>
